<?xml version="1.0" encoding="UTF-8" standalone="no"?>
<svg
   viewBox="0 0 120 120"
   width="120"
   height="120"
   version="1.1"
   id="svg14"
   sodipodi:docname="bunnyr.svg"
   inkscape:version="1.4.4 (dcaf3e7d9e, 2026-05-05)"
   xmlns:inkscape="http://www.inkscape.org/namespaces/inkscape"
   xmlns:sodipodi="http://sodipodi.sourceforge.net/DTD/sodipodi-0.dtd"
   xmlns="http://www.w3.org/2000/svg"
   xmlns:svg="http://www.w3.org/2000/svg">
  <sodipodi:namedview
     id="namedview14"
     pagecolor="#ffffff"
     bordercolor="#666666"
     borderopacity="1.0"
     inkscape:showpageshadow="2"
     inkscape:pageopacity="0.0"
     inkscape:pagecheckerboard="0"
     inkscape:deskcolor="#d1d1d1"
     showgrid="false"
     inkscape:zoom="4.6147464"
     inkscape:cx="38.355304"
     inkscape:cy="68.259439"
     inkscape:window-width="1888"
     inkscape:window-height="975"
     inkscape:window-x="26"
     inkscape:window-y="23"
     inkscape:window-maximized="0"
     inkscape:current-layer="svg14" />
  <defs
     id="defs1">
    <filter
       id="shadow"
       x="-0.042857145"
       y="-0.060000002"
       width="1.0857143"
       height="1.12">
      <feDropShadow
         dx="0"
         dy="2"
         stdDeviation="2"
         flood-opacity="0.2" />
    </filter>
  </defs>
  <ellipse
     style="font-variation-settings:'wght' 400;opacity:1;fill:#bbbbbb;fill-opacity:1;stroke:#858585;stroke-width:2;stroke-linecap:round;stroke-linejoin:round;stroke-opacity:1;stroke-dasharray:none"
     id="path19"
     cx="111.21475"
     cy="71.876091"
     rx="6.7852449"
     ry="7.7545652" />
  <path
     id="path23"
     style="font-variation-settings:'wght' 400;opacity:1;fill:#bbbbbb;fill-opacity:1;stroke:#858585;stroke-width:2;stroke-linecap:round;stroke-linejoin:round;stroke-opacity:1;stroke-dasharray:none"
     d="m 78.572124,70.329907 c -9.397416,3.76e-4 -17.015521,7.2325 -17.016247,16.154097 -3.97e-4,4.179882 1.705685,8.197227 4.759789,11.207957 -0.293917,-0.004 -0.588113,-0.007 -0.882358,-0.007 -10.708969,-1.3e-4 -19.389787,2.701129 -19.387161,6.032809 0.171787,6.9096 8.681015,3.55961 19.387161,3.55949 10.706146,1.2e-4 19.385795,-0.22869 19.387162,-3.55949 0,-5.518229 10.770319,-2.66062 10.770149,-17.234034 -7.2e-4,-8.92243 -7.620201,-16.154898 -17.018495,-16.154096 z"
     sodipodi:nodetypes="cccccccccc" />
  <ellipse
     style="font-variation-settings:'wght' 400;opacity:1;fill:#bbbbbb;fill-opacity:1;stroke:#858585;stroke-width:2;stroke-linecap:round;stroke-linejoin:round;stroke-opacity:1;stroke-dasharray:none"
     id="path15"
     cx="54.388348"
     cy="-22.660698"
     rx="7.3237562"
     ry="19.924927"
     transform="rotate(44.631561)" />
  <ellipse
     style="font-variation-settings:'wght' 400;opacity:1;fill:#bbbbbb;fill-opacity:1;stroke:#858585;stroke-width:2;stroke-linecap:round;stroke-linejoin:round;stroke-opacity:1;stroke-dasharray:none"
     id="ellipse16"
     cx="49.652592"
     cy="87.97435"
     rx="8.077673"
     ry="7.6468635" />
  <!-- Tail -->
  <!-- Back leg / foot -->
  <!-- Body -->
  <!-- Front paw left -->
  <!-- Front paw right -->
  <!-- Head -->
  <!-- Ears -->
  <!-- Inner ears -->
  <!-- Eye -->
  <!-- Nose -->
  <!-- Mouth -->
  <!-- Whiskers -->
  <path
     id="path14"
     style="font-variation-settings:'wght' 400;opacity:1;fill:#d2d2d2;fill-opacity:1;stroke:#858585;stroke-width:2;stroke-linecap:round;stroke-linejoin:round;stroke-opacity:1;stroke-dasharray:none"
     d="M 43.900391 31.380859 A 24.986935 24.986935 0 0 0 18.914062 56.367188 A 24.986935 24.986935 0 0 0 43.900391 81.353516 A 24.986935 24.986935 0 0 0 48.783203 80.873047 A 30.846132 30.846132 0 0 0 79.443359 108.32227 A 30.846132 30.846132 0 0 0 110.28906 77.476562 A 30.846132 30.846132 0 0 0 79.443359 46.630859 A 30.846132 30.846132 0 0 0 67.755859 48.929688 A 24.986935 24.986935 0 0 0 43.900391 31.380859 z " />
  <ellipse
     style="font-variation-settings:'wght' 400;opacity:1;fill:#dedede;fill-opacity:1;stroke:#858585;stroke-width:2;stroke-linecap:round;stroke-linejoin:round;stroke-opacity:1;stroke-dasharray:none"
     id="ellipse15"
     cx="64.236443"
     cy="-29.210314"
     rx="7.3237562"
     ry="19.924927"
     transform="rotate(44.631561)" />
  <ellipse
     style="font-variation-settings:'wght' 400;opacity:1;fill:#dedede;fill-opacity:1;stroke:#858585;stroke-width:2;stroke-linecap:round;stroke-linejoin:round;stroke-opacity:1;stroke-dasharray:none"
     id="path16"
     cx="54.785809"
     cy="86.519478"
     rx="8.077673"
     ry="7.6468635" />
  <path
     id="path17"
     style="font-variation-settings:'wght' 400;opacity:1;fill:#dedede;fill-opacity:1;stroke:#858585;stroke-width:2;stroke-linecap:round;stroke-linejoin:round;stroke-opacity:1;stroke-dasharray:none"
     d="m 91.289256,71.876586 c -9.397416,3.76e-4 -17.015521,7.232499 -17.016247,16.154096 -3.97e-4,4.179879 1.705685,8.197219 4.759789,11.207959 -0.293917,-0.004 -0.588113,-0.007 -0.882358,-0.007 -10.708969,-1.3e-4 -19.389787,2.701129 -19.387161,6.032809 0.171787,6.90959 8.681015,3.55961 19.387161,3.55948 10.706147,1.3e-4 19.385799,-0.22869 19.387159,-3.55948 0,-5.518229 10.770321,-2.66062 10.770151,-17.234035 -7.2e-4,-8.92243 -7.6202,-16.154899 -17.018494,-16.154096 z"
     sodipodi:nodetypes="cccccccccc" />
  <ellipse
     style="font-variation-settings:'wght' 400;opacity:1;fill:#f8bdbd;fill-opacity:1;stroke:none;stroke-width:5.14258;stroke-linecap:round;stroke-linejoin:round;stroke-opacity:1"
     id="path20"
     cx="22.103119"
     cy="59.369297"
     rx="4.4157944"
     ry="4.3080921" />
  <circle
     style="font-variation-settings:'wght' 400;opacity:1;fill:#210404;fill-opacity:1;stroke:none;stroke-width:5.14258;stroke-linecap:round;stroke-linejoin:round;stroke-opacity:1"
     id="path21"
     cx="36.695671"
     cy="51.152122"
     r="4.0926871" />
  <path
     d="m 24.957776,69.271504 q 6.122876,4.762237 12.245752,0"
     fill="none"
     stroke="#333333"
     stroke-width="1.76883"
     stroke-linecap="round"
     id="path12" />
  <line
     x1="17.926067"
     y1="59.496746"
     x2="5.680315"
     y2="60.857388"
     stroke="#bbbbbb"
     stroke-width="1.36063"
     stroke-linecap="round"
     id="line13" />
  <line
     x1="17.926067"
     y1="62.218029"
     x2="5.680315"
     y2="69.021217"
     stroke="#bbbbbb"
     stroke-width="1.36063"
     stroke-linecap="round"
     id="line14" />
  <line
     x1="26.705738"
     y1="59.707706"
     x2="38.951492"
     y2="61.06834"
     stroke="#bbbbbb"
     stroke-width="1.36063"
     stroke-linecap="round"
     id="line22" />
  <line
     x1="26.705738"
     y1="62.428974"
     x2="38.951492"
     y2="69.23217"
     stroke="#bbbbbb"
     stroke-width="1.36063"
     stroke-linecap="round"
     id="line23" />
  <circle
     style="font-variation-settings:'wght' 400;opacity:1;fill:#ffffff;fill-opacity:1;stroke:none;stroke-width:2.55132;stroke-linecap:round;stroke-linejoin:round;stroke-opacity:1"
     id="circle23"
     cx="35.148994"
     cy="49.94915"
     r="2.0304496" />
</svg>
